#define layout_tall_width 16
#define layout_tall_height 16
static unsigned char layout_tall_bits[] = {
   0xff, 0xff, 0x01, 0x81, 0x01, 0x81, 0x01, 0x81, 0x01, 0x81, 0x01, 0x81,
   0x01, 0x81, 0x01, 0x81, 0x01, 0xff, 0x01, 0x81, 0x01, 0x81, 0x01, 0x81,
   0x01, 0x81, 0x01, 0x81, 0x01, 0x81, 0xff, 0xff };
