#define layout_mirror_tall_width 16
#define layout_mirror_tall_height 16
static unsigned char layout_mirror_tall_bits[] = {
   0xff, 0xff, 0x01, 0x80, 0x01, 0x80, 0x01, 0x80, 0x01, 0x80, 0x01, 0x80,
   0x01, 0x80, 0x01, 0x80, 0xff, 0xff, 0x81, 0x80, 0x81, 0x80, 0x81, 0x80,
   0x81, 0x80, 0x81, 0x80, 0x81, 0x80, 0xff, 0xff };
